<mxfile host="app.diagrams.net" modified="2020-12-31T09:14:35.194Z" agent="5.0 (Windows NT 10.0; Win64; x64) AppleWebKit/537.36 (KHTML, like Gecko) Chrome/87.0.4280.88 Safari/537.36" etag="Aw2217g_LohBxL22-RY6" version="14.1.3" type="github">
  <diagram id="kgpKYQtTHZ0yAKxKKP6v" name="Page-1">
    <mxGraphModel dx="1038" dy="580" grid="1" gridSize="10" guides="1" tooltips="1" connect="1" arrows="1" fold="1" page="1" pageScale="1" pageWidth="850" pageHeight="1100" math="0" shadow="0">
      <root>
        <mxCell id="0" />
        <mxCell id="1" parent="0" />
        <mxCell id="Tb57O-mo4cAXQ8m7ZV6y-1" value="" style="shape=umlLifeline;participant=umlActor;perimeter=lifelinePerimeter;whiteSpace=wrap;html=1;container=1;collapsible=0;recursiveResize=0;verticalAlign=top;spacingTop=36;outlineConnect=0;" vertex="1" parent="1">
          <mxGeometry x="170" y="40" width="20" height="430" as="geometry" />
        </mxCell>
        <mxCell id="Tb57O-mo4cAXQ8m7ZV6y-5" value="" style="html=1;points=[];perimeter=orthogonalPerimeter;" vertex="1" parent="Tb57O-mo4cAXQ8m7ZV6y-1">
          <mxGeometry x="5" y="80" width="10" height="320" as="geometry" />
        </mxCell>
        <mxCell id="Tb57O-mo4cAXQ8m7ZV6y-2" value=":Giao diện" style="shape=umlLifeline;perimeter=lifelinePerimeter;whiteSpace=wrap;html=1;container=1;collapsible=0;recursiveResize=0;outlineConnect=0;" vertex="1" parent="1">
          <mxGeometry x="370" y="40" width="100" height="430" as="geometry" />
        </mxCell>
        <mxCell id="Tb57O-mo4cAXQ8m7ZV6y-6" value="" style="html=1;points=[];perimeter=orthogonalPerimeter;" vertex="1" parent="Tb57O-mo4cAXQ8m7ZV6y-2">
          <mxGeometry x="45" y="90" width="10" height="310" as="geometry" />
        </mxCell>
        <mxCell id="Tb57O-mo4cAXQ8m7ZV6y-10" value="Đi đến giao diện&amp;nbsp;&lt;br&gt;sửa thông tin cá nhân" style="edgeStyle=orthogonalEdgeStyle;html=1;align=left;spacingLeft=2;endArrow=block;rounded=0;entryX=1;entryY=0;" edge="1" parent="Tb57O-mo4cAXQ8m7ZV6y-2">
          <mxGeometry relative="1" as="geometry">
            <mxPoint x="55" y="120" as="sourcePoint" />
            <Array as="points">
              <mxPoint x="80" y="120" />
            </Array>
            <mxPoint x="60" y="140" as="targetPoint" />
          </mxGeometry>
        </mxCell>
        <mxCell id="Tb57O-mo4cAXQ8m7ZV6y-15" value="Gửi yêu cầu đến hệ thống" style="html=1;verticalAlign=bottom;endArrow=block;" edge="1" parent="Tb57O-mo4cAXQ8m7ZV6y-2" target="Tb57O-mo4cAXQ8m7ZV6y-3">
          <mxGeometry width="80" relative="1" as="geometry">
            <mxPoint x="60" y="320" as="sourcePoint" />
            <mxPoint x="140" y="320" as="targetPoint" />
          </mxGeometry>
        </mxCell>
        <mxCell id="Tb57O-mo4cAXQ8m7ZV6y-3" value=":Server" style="shape=umlLifeline;perimeter=lifelinePerimeter;whiteSpace=wrap;html=1;container=1;collapsible=0;recursiveResize=0;outlineConnect=0;" vertex="1" parent="1">
          <mxGeometry x="640" y="40" width="100" height="420" as="geometry" />
        </mxCell>
        <mxCell id="Tb57O-mo4cAXQ8m7ZV6y-14" value="" style="html=1;points=[];perimeter=orthogonalPerimeter;" vertex="1" parent="Tb57O-mo4cAXQ8m7ZV6y-3">
          <mxGeometry x="45" y="280" width="10" height="120" as="geometry" />
        </mxCell>
        <mxCell id="Tb57O-mo4cAXQ8m7ZV6y-17" value="Lưu thông tin đã&lt;br&gt;sửa vào hệ thống" style="edgeStyle=orthogonalEdgeStyle;html=1;align=left;spacingLeft=2;endArrow=block;rounded=0;entryX=1;entryY=0;" edge="1" parent="Tb57O-mo4cAXQ8m7ZV6y-3">
          <mxGeometry relative="1" as="geometry">
            <mxPoint x="55" y="330" as="sourcePoint" />
            <Array as="points">
              <mxPoint x="80" y="330" />
            </Array>
            <mxPoint x="60" y="350" as="targetPoint" />
          </mxGeometry>
        </mxCell>
        <mxCell id="Tb57O-mo4cAXQ8m7ZV6y-4" value="Người dùng" style="text;align=center;fontStyle=1;verticalAlign=middle;spacingLeft=3;spacingRight=3;strokeColor=none;rotatable=0;points=[[0,0.5],[1,0.5]];portConstraint=eastwest;" vertex="1" parent="1">
          <mxGeometry x="140" y="90" width="80" height="26" as="geometry" />
        </mxCell>
        <mxCell id="Tb57O-mo4cAXQ8m7ZV6y-8" value="Chọn nút chỉnh sửa thông tin cá nhân" style="html=1;verticalAlign=bottom;endArrow=block;" edge="1" parent="1" target="Tb57O-mo4cAXQ8m7ZV6y-2">
          <mxGeometry width="80" relative="1" as="geometry">
            <mxPoint x="190" y="150" as="sourcePoint" />
            <mxPoint x="270" y="150" as="targetPoint" />
          </mxGeometry>
        </mxCell>
        <mxCell id="Tb57O-mo4cAXQ8m7ZV6y-11" value="Yêu cầu người dùng sửa thông tin cần sửa" style="html=1;verticalAlign=bottom;endArrow=open;dashed=1;endSize=8;" edge="1" parent="1" source="Tb57O-mo4cAXQ8m7ZV6y-2">
          <mxGeometry relative="1" as="geometry">
            <mxPoint x="270" y="220" as="sourcePoint" />
            <mxPoint x="190" y="220" as="targetPoint" />
          </mxGeometry>
        </mxCell>
        <mxCell id="Tb57O-mo4cAXQ8m7ZV6y-12" value="Sửa thông tin cần sửa" style="html=1;verticalAlign=bottom;endArrow=block;" edge="1" parent="1" target="Tb57O-mo4cAXQ8m7ZV6y-2">
          <mxGeometry width="80" relative="1" as="geometry">
            <mxPoint x="190" y="270" as="sourcePoint" />
            <mxPoint x="270" y="270" as="targetPoint" />
          </mxGeometry>
        </mxCell>
        <mxCell id="Tb57O-mo4cAXQ8m7ZV6y-13" value="Sửa thông tin cần sửa" style="html=1;verticalAlign=bottom;endArrow=block;" edge="1" parent="1" target="Tb57O-mo4cAXQ8m7ZV6y-2">
          <mxGeometry width="80" relative="1" as="geometry">
            <mxPoint x="190" y="320" as="sourcePoint" />
            <mxPoint x="270" y="320" as="targetPoint" />
          </mxGeometry>
        </mxCell>
      </root>
    </mxGraphModel>
  </diagram>
</mxfile>
